<svg xmlns="http://www.w3.org/2000/svg" version="1.1" xmlns:xlink="http://www.w3.org/1999/xlink" xmlns:svgjs="http://svgjs.dev/svgjs" width="1440" height="560" preserveAspectRatio="none" viewBox="0 0 1440 560"><g mask="url(&quot;#SvgjsMask1011&quot;)" fill="none"><path d="M1354 194L1353 420" stroke-width="8" stroke="url(&quot;#SvgjsLinearGradient1012&quot;)" stroke-linecap="round" class="Up"></path><path d="M1221 380L1220 101" stroke-width="8" stroke="url(&quot;#SvgjsLinearGradient1012&quot;)" stroke-linecap="round" class="Up"></path><path d="M417 205L416 -203" stroke-width="10" stroke="url(&quot;#SvgjsLinearGradient1012&quot;)" stroke-linecap="round" class="Up"></path><path d="M1198 154L1197 299" stroke-width="10" stroke="url(&quot;#SvgjsLinearGradient1013&quot;)" stroke-linecap="round" class="Down"></path><path d="M524 116L523 472" stroke-width="10" stroke="url(&quot;#SvgjsLinearGradient1013&quot;)" stroke-linecap="round" class="Down"></path><path d="M882 267L881 79" stroke-width="6" stroke="url(&quot;#SvgjsLinearGradient1012&quot;)" stroke-linecap="round" class="Up"></path><path d="M723 203L722 393" stroke-width="6" stroke="url(&quot;#SvgjsLinearGradient1012&quot;)" stroke-linecap="round" class="Up"></path><path d="M546 156L545 408" stroke-width="10" stroke="url(&quot;#SvgjsLinearGradient1012&quot;)" stroke-linecap="round" class="Up"></path><path d="M881 22L880 -389" stroke-width="8" stroke="url(&quot;#SvgjsLinearGradient1012&quot;)" stroke-linecap="round" class="Up"></path><path d="M113 466L112 110" stroke-width="6" stroke="url(&quot;#SvgjsLinearGradient1012&quot;)" stroke-linecap="round" class="Up"></path><path d="M602 113L601 -39" stroke-width="8" stroke="url(&quot;#SvgjsLinearGradient1012&quot;)" stroke-linecap="round" class="Up"></path><path d="M630 109L629 -251" stroke-width="6" stroke="url(&quot;#SvgjsLinearGradient1012&quot;)" stroke-linecap="round" class="Up"></path><path d="M784 369L783 758" stroke-width="10" stroke="url(&quot;#SvgjsLinearGradient1013&quot;)" stroke-linecap="round" class="Down"></path><path d="M1071 173L1070 330" stroke-width="10" stroke="url(&quot;#SvgjsLinearGradient1012&quot;)" stroke-linecap="round" class="Up"></path><path d="M980 340L979 553" stroke-width="6" stroke="url(&quot;#SvgjsLinearGradient1012&quot;)" stroke-linecap="round" class="Up"></path><path d="M693 364L692 12" stroke-width="6" stroke="url(&quot;#SvgjsLinearGradient1013&quot;)" stroke-linecap="round" class="Down"></path><path d="M1389 228L1388 -156" stroke-width="6" stroke="url(&quot;#SvgjsLinearGradient1013&quot;)" stroke-linecap="round" class="Down"></path><path d="M1120 423L1119 779" stroke-width="10" stroke="url(&quot;#SvgjsLinearGradient1012&quot;)" stroke-linecap="round" class="Up"></path><path d="M691 328L690 506" stroke-width="8" stroke="url(&quot;#SvgjsLinearGradient1013&quot;)" stroke-linecap="round" class="Down"></path><path d="M1418 519L1417 260" stroke-width="8" stroke="url(&quot;#SvgjsLinearGradient1013&quot;)" stroke-linecap="round" class="Down"></path><path d="M464 232L463 -41" stroke-width="6" stroke="url(&quot;#SvgjsLinearGradient1013&quot;)" stroke-linecap="round" class="Down"></path><path d="M279 324L278 41" stroke-width="8" stroke="url(&quot;#SvgjsLinearGradient1012&quot;)" stroke-linecap="round" class="Up"></path><path d="M155 283L154 86" stroke-width="6" stroke="url(&quot;#SvgjsLinearGradient1012&quot;)" stroke-linecap="round" class="Up"></path><path d="M1145 271L1144 676" stroke-width="8" stroke="url(&quot;#SvgjsLinearGradient1012&quot;)" stroke-linecap="round" class="Up"></path><path d="M1330 516L1329 895" stroke-width="6" stroke="url(&quot;#SvgjsLinearGradient1013&quot;)" stroke-linecap="round" class="Down"></path><path d="M18 412L17 821" stroke-width="10" stroke="url(&quot;#SvgjsLinearGradient1012&quot;)" stroke-linecap="round" class="Up"></path><path d="M1127 291L1126 149" stroke-width="6" stroke="url(&quot;#SvgjsLinearGradient1012&quot;)" stroke-linecap="round" class="Up"></path><path d="M423 215L422 -205" stroke-width="6" stroke="url(&quot;#SvgjsLinearGradient1013&quot;)" stroke-linecap="round" class="Down"></path><path d="M587 267L586 -53" stroke-width="8" stroke="url(&quot;#SvgjsLinearGradient1013&quot;)" stroke-linecap="round" class="Down"></path><path d="M1295 535L1294 780" stroke-width="10" stroke="url(&quot;#SvgjsLinearGradient1012&quot;)" stroke-linecap="round" class="Up"></path><path d="M1318 148L1317 -18" stroke-width="6" stroke="url(&quot;#SvgjsLinearGradient1013&quot;)" stroke-linecap="round" class="Down"></path><path d="M1052 103L1051 -282" stroke-width="10" stroke="url(&quot;#SvgjsLinearGradient1012&quot;)" stroke-linecap="round" class="Up"></path><path d="M1390 397L1389 -4" stroke-width="10" stroke="url(&quot;#SvgjsLinearGradient1012&quot;)" stroke-linecap="round" class="Up"></path><path d="M1092 534L1091 781" stroke-width="8" stroke="url(&quot;#SvgjsLinearGradient1013&quot;)" stroke-linecap="round" class="Down"></path><path d="M189 332L188 596" stroke-width="8" stroke="url(&quot;#SvgjsLinearGradient1012&quot;)" stroke-linecap="round" class="Up"></path><path d="M1157 151L1156 -91" stroke-width="6" stroke="url(&quot;#SvgjsLinearGradient1013&quot;)" stroke-linecap="round" class="Down"></path></g><defs><mask id="SvgjsMask1011"><rect width="1440" height="560" fill="#ffffff"></rect></mask><linearGradient x1="0%" y1="100%" x2="0%" y2="0%" id="SvgjsLinearGradient1012"><stop stop-color="rgba(61, 211, 96, 0)" offset="0"></stop><stop stop-color="rgba(61, 211, 96, 1)" offset="1"></stop></linearGradient><linearGradient x1="0%" y1="0%" x2="0%" y2="100%" id="SvgjsLinearGradient1013"><stop stop-color="rgba(61, 211, 96, 0)" offset="0"></stop><stop stop-color="rgba(61, 211, 96, 1)" offset="1"></stop></linearGradient></defs></svg>