<svg xmlns="http://www.w3.org/2000/svg" version="1.1" xmlns:xlink="http://www.w3.org/1999/xlink" xmlns:svgjs="http://svgjs.dev/svgjs" width="1440" height="560" preserveAspectRatio="none" viewBox="0 0 1440 560"><g mask="url(&quot;#SvgjsMask1001&quot;)" fill="none"><rect width="1440" height="560" x="0" y="0" fill="rgba(61, 211, 96, 1)"></rect><path d="M0,388.299C74.796,378.578,150.589,373.78,215.127,334.744C280.754,295.049,332.275,236.038,365.789,167.05C399.836,96.965,403.983,19.498,406.111,-58.39C408.636,-150.771,438.574,-257.764,379.337,-328.697C320.155,-399.563,209.943,-391.534,118.329,-402.991C39.562,-412.841,-42.991,-424.614,-114.653,-390.471C-182.231,-358.274,-209.013,-280.159,-258.101,-223.646C-307.265,-167.045,-371.735,-125.945,-403.438,-58.006C-442.914,26.591,-489.763,121.669,-460.621,210.358C-431.164,300.005,-342.361,361.753,-254.338,395.757C-173.585,426.952,-85.847,399.456,0,388.299" fill="#28b148"></path><path d="M1440 929.665C1509.108 918.085 1577.212 903.056 1635.029 863.47 1691.734 824.645 1732.156 768.874 1763.88 707.9110000000001 1796.9850000000001 644.294 1826.104 576.716 1821.49 505.15 1816.681 430.551 1782.252 362.06600000000003 1737.714 302.029 1690.563 238.47000000000003 1632.222 183.99900000000002 1559.717 152.28199999999998 1480.755 117.74000000000001 1391.538 89.06900000000002 1309.214 114.58300000000003 1227.205 139.99900000000002 1177.246 218.91699999999997 1124.963 287.019 1075.455 351.507 1035.033 420.18600000000004 1014.258 498.787 991.418 585.202 965.097 678.668 999.662 761.096 1034.507 844.191 1113.749 904.502 1197.899 936.716 1274.856 966.1759999999999 1358.73 943.283 1440 929.665" fill="#69dd84"></path></g><defs><mask id="SvgjsMask1001"><rect width="1440" height="560" fill="#ffffff"></rect></mask></defs></svg>